999
dxfrw 0.6.3
  0
SECTION
  2
HEADER
  9
$ACADVER
  1
AC1021
  9
$DWGCODEPAGE
  3
ANSI_1252
  9
$INSBASE
 10
0
 20
0
 30
0
  9
$EXTMIN
 10
-813.0336915676273
 20
-659.0407424646272
 30
0
  9
$EXTMAX
 10
2351.028808432373
 20
2986.662382535373
 30
0
  9
$LIMMIN
 10
0
 20
0
  9
$LIMMAX
 10
420
 20
297
  9
$ORTHOMODE
 70
    0
  9
$REGENMODE
 70
    1
  9
$FILLMODE
 70
    1
  9
$QTEXTMODE
 70
    0
  9
$MIRRTEXT
 70
    0
  9
$LTSCALE
 40
1
  9
$ATTMODE
 70
    0
  9
$TEXTSIZE
 40
2.5
  9
$TRACEWID
 40
15.68
  9
$TEXTSTYLE
  7
STANDARD
  9
$CLAYER
  8
buildings
  9
$CELTYPE
  6
BYLAYER
  9
$CECOLOR
 62
  256
  9
$CELTSCALE
 40
1
  9
$DISPSILH
 70
    0
  9
$DIMSCALE
 40
1
  9
$DIMASZ
 40
0.0025
  9
$DIMEXO
 40
0.000625
  9
$DIMDLI
 40
3.75
  9
$DIMRND
 40
0
  9
$DIMDLE
 40
0
  9
$DIMEXE
 40
0.00125
  9
$DIMTP
 40
0
  9
$DIMTM
 40
0
  9
$DIMTXT
 40
0.0025
  9
$DIMCEN
 40
2.5
  9
$DIMTSZ
 40
0
  9
$DIMTOL
 70
    0
  9
$DIMLIM
 70
    0
  9
$DIMTIH
 70
    0
  9
$DIMTOH
 70
    0
  9
$DIMSE1
 70
    0
  9
$DIMSE2
 70
    0
  9
$DIMTAD
 70
    1
  9
$DIMZIN
 70
    1
  9
$DIMBLK
  1

  9
$DIMASO
 70
    1
  9
$DIMSHO
 70
    1
  9
$DIMPOST
  1

  9
$DIMAPOST
  1

  9
$DIMALT
 70
    0
  9
$DIMALTD
 70
    3
  9
$DIMALTF
 40
0.03937
  9
$DIMLFAC
 40
1
  9
$DIMTOFL
 70
    1
  9
$DIMTVP
 40
0
  9
$DIMTIX
 70
    0
  9
$DIMSOXD
 70
    0
  9
$DIMSAH
 70
    0
  9
$DIMBLK1
  1

  9
$DIMBLK2
  1

  9
$DIMSTYLE
  2
STANDARD
  9
$DIMCLRD
 70
    0
  9
$DIMCLRE
 70
    0
  9
$DIMCLRT
 70
    0
  9
$DIMTFAC
 40
1
  9
$DIMGAP
 40
0.000625
  9
$DIMJUST
 70
    0
  9
$DIMSD1
 70
    0
  9
$DIMSD2
 70
    0
  9
$DIMTOLJ
 70
    0
  9
$DIMTZIN
 70
    8
  9
$DIMALTZ
 70
    0
  9
$DIMALTTZ
 70
    0
  9
$DIMUPT
 70
    0
  9
$DIMDEC
 70
    4
  9
$DIMTDEC
 70
    2
  9
$DIMALTU
 70
    2
  9
$DIMALTTD
 70
    3
  9
$DIMTXSTY
  7
standard
  9
$DIMAUNIT
 70
    0
  9
$DIMADEC
 70
    2
  9
$DIMALTRND
 40
0
  9
$DIMAZIN
 70
    0
  9
$DIMDSEP
 70
    0
  9
$DIMATFIT
 70
    3
  9
$DIMFRAC
 70
    0
  9
$DIMLDRBLK
  1
STANDARD
  9
$DIMLUNIT
 70
    2
  9
$DIMLWD
 70
   -2
  9
$DIMLWE
 70
   -2
  9
$DIMTMOVE
 70
    0
  9
$DIMFXL
 40
0
  9
$DIMFXLON
 70
    0
  9
$DIMJOGANG
 40
0.7854
  9
$DIMTFILL
 70
    0
  9
$DIMTFILLCLR
 70
    0
  9
$DIMARCSYM
 70
    0
  9
$DIMLTYPE
  6

  9
$DIMLTEX1
  6

  9
$DIMLTEX2
  6

  9
$LUNITS
 70
    2
  9
$LUPREC
 70
    4
  9
$SKETCHINC
 40
1
  9
$FILLETRAD
 40
0
  9
$AUNITS
 70
    0
  9
$AUPREC
 70
    2
  9
$MENU
  1
.
  9
$ELEVATION
 40
0
  9
$PELEVATION
 40
0
  9
$THICKNESS
 40
0
  9
$LIMCHECK
 70
    0
  9
$CHAMFERA
 40
0
  9
$CHAMFERB
 40
0
  9
$CHAMFERC
 40
0
  9
$CHAMFERD
 40
0
  9
$SKPOLY
 70
    0
  9
$USRTIMER
 70
    1
  9
$ANGBASE
 50
0
  9
$ANGDIR
 70
    0
  9
$PDMODE
 70
   34
  9
$PDSIZE
 40
0
  9
$PLINEWID
 40
0
  9
$SPLFRAME
 70
    0
  9
$SPLINETYPE
 70
    2
  9
$SPLINESEGS
 70
    8
  9
$HANDSEED
  5
20000
  9
$SURFTAB1
 70
    6
  9
$SURFTAB2
 70
    6
  9
$SURFTYPE
 70
    6
  9
$SURFU
 70
    6
  9
$SURFV
 70
    6
  9
$UCSBASE
  2

  9
$UCSNAME
  2

  9
$UCSORG
 10
0
 20
0
 30
0
  9
$UCSXDIR
 10
1
 20
0
 30
0
  9
$UCSYDIR
 10
0
 20
1
 30
0
  9
$UCSORTHOREF
  2

  9
$UCSORTHOVIEW
 70
    0
  9
$UCSORGTOP
 10
0
 20
0
 30
0
  9
$UCSORGBOTTOM
 10
0
 20
0
 30
0
  9
$UCSORGLEFT
 10
0
 20
0
 30
0
  9
$UCSORGRIGHT
 10
0
 20
0
 30
0
  9
$UCSORGFRONT
 10
0
 20
0
 30
0
  9
$UCSORGBACK
 10
0
 20
0
 30
0
  9
$PUCSBASE
  2

  9
$PUCSNAME
  2

  9
$PUCSORG
 10
0
 20
0
 30
0
  9
$PUCSXDIR
 10
1
 20
0
 30
0
  9
$PUCSYDIR
 10
0
 20
1
 30
0
  9
$PUCSORTHOREF
  2

  9
$PUCSORTHOVIEW
 70
    0
  9
$PUCSORGTOP
 10
0
 20
0
 30
0
  9
$PUCSORGBOTTOM
 10
0
 20
0
 30
0
  9
$PUCSORGLEFT
 10
0
 20
0
 30
0
  9
$PUCSORGRIGHT
 10
0
 20
0
 30
0
  9
$PUCSORGFRONT
 10
0
 20
0
 30
0
  9
$PUCSORGBACK
 10
0
 20
0
 30
0
  9
$USERI1
 70
    0
  9
$USERI2
 70
    0
  9
$USERI3
 70
    0
  9
$USERI4
 70
    0
  9
$USERI5
 70
    0
  9
$USERR1
 40
0
  9
$USERR2
 40
0
  9
$USERR3
 40
0
  9
$USERR4
 40
0
  9
$USERR5
 40
0
  9
$WORLDVIEW
 70
    1
  9
$SHADEDGE
 70
    3
  9
$SHADEDIF
 70
   70
  9
$TILEMODE
 70
    1
  9
$MAXACTVP
 70
   64
  9
$PINSBASE
 10
0.05307012270437488
 20
0.03385293075950986
 30
0
  9
$PLIMCHECK
 70
    0
  9
$PEXTMIN
 10
0
 20
0
 30
0
  9
$PEXTMAX
 10
0
 20
0
 30
0
  9
$GRIDMODE
 70
    1
  9
$SNAPSTYLE
 70
    0
  9
$GRIDUNIT
 10
0
 20
0
  9
$PLIMMIN
 10
0
 20
0
  9
$PLIMMAX
 10
0.2159
 20
0.2794
  9
$UNITMODE
 70
    0
  9
$VISRETAIN
 70
    1
  9
$PLINEGEN
 70
    0
  9
$PSLTSCALE
 70
    1
  9
$TREEDEPTH
 70
 3020
  9
$CMLSTYLE
  2
Standard
  9
$CMLJUST
 70
    0
  9
$CMLSCALE
 40
20
  9
$PROXYGRAPHICS
 70
    1
  9
$MEASUREMENT
 70
    1
  9
$CELWEIGHT
370
   -1
  9
$ENDCAPS
280
    0
  9
$JOINSTYLE
280
    0
  9
$LWDISPLAY
290
    0
  9
$INSUNITS
 70
    6
  9
$HYPERLINKBASE
  1

  9
$STYLESHEET
  1

  9
$XEDIT
290
    1
  9
$CEPSNTYPE
380
    0
  9
$PSTYLEMODE
290
    1
  9
$EXTNAMES
290
    1
  9
$PSVPSCALE
 40
0.0001333333333333333
  9
$OLESTARTUP
290
    0
  9
$SORTENTS
280
  127
  9
$INDEXCTL
280
    0
  9
$HIDETEXT
280
    1
  9
$XCLIPFRAME
290
    0
  9
$HALOGAP
280
    0
  9
$OBSCOLOR
 70
  257
  9
$OBSLTYPE
280
    0
  9
$INTERSECTIONDISPLAY
280
    0
  9
$INTERSECTIONCOLOR
 70
  257
  9
$DIMASSOC
280
    1
  9
$PROJECTNAME
  1

  9
$CAMERADISPLAY
290
    0
  9
$LENSLENGTH
 40
50
  9
$CAMERAHEIGHT
 40
0
  9
$STEPSPERSEC
 40
2
  9
$STEPSIZE
 40
50
  9
$3DDWFPREC
 40
2
  9
$PSOLWIDTH
 40
5
  9
$PSOLHEIGHT
 40
80
  9
$LOFTANG1
 40
1.570796326794897
  9
$LOFTANG2
 40
1.570796326794897
  9
$LOFTMAG1
 40
0
  9
$LOFTMAG2
 40
0
  9
$LOFTPARAM
 70
    7
  9
$LOFTNORMALS
280
    1
  9
$LATITUDE
 40
1
  9
$LONGITUDE
 40
1
  9
$NORTHDIRECTION
 40
0
  9
$TIMEZONE
 70
-8000
  9
$LIGHTGLYPHDISPLAY
280
    1
  9
$TILEMODELIGHTSYNCH
280
    1
  9
$SOLIDHIST
280
    1
  9
$SHOWHIST
280
    1
  9
$DWFFRAME
280
    2
  9
$DGNFRAME
280
    0
  9
$REALWORLDSCALE
290
    1
  9
$INTERFERECOLOR
 62
    1
  9
$CSHADOW
280
    0
  9
$SHADOWPLANELOCATION
 40
0
  0
ENDSEC
  0
SECTION
  2
CLASSES
  0
ENDSEC
  0
SECTION
  2
TABLES
  0
TABLE
  2
VPORT
  5
8
330
0
100
AcDbSymbolTable
 70
    1
  0
VPORT
  5
31
330
2
100
AcDbSymbolTableRecord
100
AcDbViewportTableRecord
  2
*ACTIVE
 70
    0
 10
0
 20
0
 11
1
 21
1
 12
-2500.42600366957
 22
-1020.003808862374
 13
0
 23
0
 14
10
 24
10
 15
10
 25
10
 16
0
 26
0
 36
1
 17
0
 27
0
 37
0
 40
736.6694175117145
 41
2.096153846153846
 42
50
 43
0
 44
0
 50
0
 51
0
 71
    0
 72
  100
 73
    1
 74
    3
 75
    0
 76
    1
 77
    0
 78
    0
281
    0
 65
    1
110
0
120
0
130
0
111
1
121
0
131
0
112
0
122
1
132
0
 79
    0
146
0
348
10020
 60
    7
 61
    5
292
1
282
    1
141
0
142
0
 63
  250
421
3358443
  0
ENDTAB
  0
TABLE
  2
LTYPE
  5
5
330
0
100
AcDbSymbolTable
 70
    4
  0
LTYPE
  5
14
330
5
100
AcDbSymbolTableRecord
100
AcDbLinetypeTableRecord
  2
ByBlock
 70
    0
  3

 72
   65
 73
    0
 40
0
  0
LTYPE
  5
15
330
5
100
AcDbSymbolTableRecord
100
AcDbLinetypeTableRecord
  2
ByLayer
 70
    0
  3

 72
   65
 73
    0
 40
0
  0
LTYPE
  5
16
330
5
100
AcDbSymbolTableRecord
100
AcDbLinetypeTableRecord
  2
Continuous
 70
    0
  3
Solid line
 72
   65
 73
    0
 40
0
  0
LTYPE
  5
32
330
5
100
AcDbSymbolTableRecord
100
AcDbLinetypeTableRecord
  2
DOT
 70
    0
  3
Dot . . . . . . . . . . . . . . . . . . . . . .
 72
   65
 73
    2
 40
6.35
 49
0
 74
    0
 49
-6.35
 74
    0
  0
LTYPE
  5
33
330
5
100
AcDbSymbolTableRecord
100
AcDbLinetypeTableRecord
  2
DOTTINY
 70
    0
  3
Dot (.15x) .....................................
 72
   65
 73
    2
 40
0.9525
 49
0
 74
    0
 49
-0.9525
 74
    0
  0
LTYPE
  5
34
330
5
100
AcDbSymbolTableRecord
100
AcDbLinetypeTableRecord
  2
DOT2
 70
    0
  3
Dot (.5x) .....................................
 72
   65
 73
    2
 40
3.175
 49
0
 74
    0
 49
-3.175
 74
    0
  0
LTYPE
  5
35
330
5
100
AcDbSymbolTableRecord
100
AcDbLinetypeTableRecord
  2
DOTX2
 70
    0
  3
Dot (2x) .  .  .  .  .  .  .  .  .  .  .  .  .
 72
   65
 73
    2
 40
12.7
 49
0
 74
    0
 49
-12.7
 74
    0
  0
LTYPE
  5
36
330
5
100
AcDbSymbolTableRecord
100
AcDbLinetypeTableRecord
  2
DASHED
 70
    0
  3
Dashed _ _ _ _ _ _ _ _ _ _ _ _ _ _ _ _ _
 72
   65
 73
    2
 40
19.05
 49
12.7
 74
    0
 49
-6.35
 74
    0
  0
LTYPE
  5
37
330
5
100
AcDbSymbolTableRecord
100
AcDbLinetypeTableRecord
  2
DASHEDTINY
 70
    0
  3
Dashed (.15x) _ _ _ _ _ _ _ _ _ _ _ _ _ _ _ _ _
 72
   65
 73
    2
 40
2.8575
 49
1.905
 74
    0
 49
-0.9525
 74
    0
  0
LTYPE
  5
38
330
5
100
AcDbSymbolTableRecord
100
AcDbLinetypeTableRecord
  2
DASHED2
 70
    0
  3
Dashed (.5x) _ _ _ _ _ _ _ _ _ _ _ _ _ _ _ _ _
 72
   65
 73
    2
 40
9.524999999999999
 49
6.35
 74
    0
 49
-3.175
 74
    0
  0
LTYPE
  5
39
330
5
100
AcDbSymbolTableRecord
100
AcDbLinetypeTableRecord
  2
DASHEDX2
 70
    0
  3
Dashed (2x) ____  ____  ____  ____  ____  ___
 72
   65
 73
    2
 40
38.09999999999999
 49
25.4
 74
    0
 49
-12.7
 74
    0
  0
LTYPE
  5
3A
330
5
100
AcDbSymbolTableRecord
100
AcDbLinetypeTableRecord
  2
DASHDOT
 70
    0
  3
Dash dot __ . __ . __ . __ . __ . __ . __ . __
 72
   65
 73
    4
 40
25.4
 49
12.7
 74
    0
 49
-6.35
 74
    0
 49
0
 74
    0
 49
-6.35
 74
    0
  0
LTYPE
  5
3B
330
5
100
AcDbSymbolTableRecord
100
AcDbLinetypeTableRecord
  2
DASHDOTTINY
 70
    0
  3
Dash dot (.15x) _._._._._._._._._._._._._._._.
 72
   65
 73
    4
 40
3.81
 49
1.905
 74
    0
 49
-0.9525
 74
    0
 49
0
 74
    0
 49
-0.9525
 74
    0
  0
LTYPE
  5
3C
330
5
100
AcDbSymbolTableRecord
100
AcDbLinetypeTableRecord
  2
DASHDOT2
 70
    0
  3
Dash dot (.5x) _._._._._._._._._._._._._._._.
 72
   65
 73
    4
 40
12.7
 49
6.35
 74
    0
 49
-3.175
 74
    0
 49
0
 74
    0
 49
-3.175
 74
    0
  0
LTYPE
  5
3D
330
5
100
AcDbSymbolTableRecord
100
AcDbLinetypeTableRecord
  2
DASHDOTX2
 70
    0
  3
Dash dot (2x) ____  .  ____  .  ____  .  ___
 72
   65
 73
    4
 40
50.8
 49
25.4
 74
    0
 49
-12.7
 74
    0
 49
0
 74
    0
 49
-12.7
 74
    0
  0
LTYPE
  5
3E
330
5
100
AcDbSymbolTableRecord
100
AcDbLinetypeTableRecord
  2
DIVIDE
 70
    0
  3
Divide ____ . . ____ . . ____ . . ____ . . ____
 72
   65
 73
    6
 40
31.75
 49
12.7
 74
    0
 49
-6.35
 74
    0
 49
0
 74
    0
 49
-6.35
 74
    0
 49
0
 74
    0
 49
-6.35
 74
    0
  0
LTYPE
  5
3F
330
5
100
AcDbSymbolTableRecord
100
AcDbLinetypeTableRecord
  2
DIVIDETINY
 70
    0
  3
Divide (.15x) __..__..__..__..__..__..__..__.._
 72
   65
 73
    6
 40
4.7625
 49
1.905
 74
    0
 49
-0.9525
 74
    0
 49
0
 74
    0
 49
-0.9525
 74
    0
 49
0
 74
    0
 49
-0.9525
 74
    0
  0
LTYPE
  5
40
330
5
100
AcDbSymbolTableRecord
100
AcDbLinetypeTableRecord
  2
DIVIDE2
 70
    0
  3
Divide (.5x) __..__..__..__..__..__..__..__.._
 72
   65
 73
    6
 40
15.875
 49
6.35
 74
    0
 49
-3.175
 74
    0
 49
0
 74
    0
 49
-3.175
 74
    0
 49
0
 74
    0
 49
-3.175
 74
    0
  0
LTYPE
  5
41
330
5
100
AcDbSymbolTableRecord
100
AcDbLinetypeTableRecord
  2
DIVIDEX2
 70
    0
  3
Divide (2x) ________  .  .  ________  .  .  _
 72
   65
 73
    6
 40
63.5
 49
25.4
 74
    0
 49
-12.7
 74
    0
 49
0
 74
    0
 49
-12.7
 74
    0
 49
0
 74
    0
 49
-12.7
 74
    0
  0
LTYPE
  5
42
330
5
100
AcDbSymbolTableRecord
100
AcDbLinetypeTableRecord
  2
BORDER
 70
    0
  3
Border __ __ . __ __ . __ __ . __ __ . __ __ .
 72
   65
 73
    6
 40
44.45
 49
12.7
 74
    0
 49
-6.35
 74
    0
 49
12.7
 74
    0
 49
-6.35
 74
    0
 49
0
 74
    0
 49
-6.35
 74
    0
  0
LTYPE
  5
43
330
5
100
AcDbSymbolTableRecord
100
AcDbLinetypeTableRecord
  2
BORDERTINY
 70
    0
  3
Border (.15x) __.__.__.__.__.__.__.__.__.__.__.
 72
   65
 73
    6
 40
6.6675
 49
1.905
 74
    0
 49
-0.9525
 74
    0
 49
1.905
 74
    0
 49
-0.9525
 74
    0
 49
0
 74
    0
 49
-0.9525
 74
    0
  0
LTYPE
  5
44
330
5
100
AcDbSymbolTableRecord
100
AcDbLinetypeTableRecord
  2
BORDER2
 70
    0
  3
Border (.5x) __.__.__.__.__.__.__.__.__.__.__.
 72
   65
 73
    6
 40
22.225
 49
6.35
 74
    0
 49
-3.175
 74
    0
 49
6.35
 74
    0
 49
-3.175
 74
    0
 49
0
 74
    0
 49
-3.175
 74
    0
  0
LTYPE
  5
45
330
5
100
AcDbSymbolTableRecord
100
AcDbLinetypeTableRecord
  2
BORDERX2
 70
    0
  3
Border (2x) ____  ____  .  ____  ____  .  ___
 72
   65
 73
    6
 40
88.89999999999999
 49
25.4
 74
    0
 49
-12.7
 74
    0
 49
25.4
 74
    0
 49
-12.7
 74
    0
 49
0
 74
    0
 49
-12.7
 74
    0
  0
LTYPE
  5
46
330
5
100
AcDbSymbolTableRecord
100
AcDbLinetypeTableRecord
  2
CENTER
 70
    0
  3
Center ____ _ ____ _ ____ _ ____ _ ____ _ ____
 72
   65
 73
    4
 40
50.8
 49
31.75
 74
    0
 49
-6.35
 74
    0
 49
6.35
 74
    0
 49
-6.35
 74
    0
  0
LTYPE
  5
47
330
5
100
AcDbSymbolTableRecord
100
AcDbLinetypeTableRecord
  2
CENTERTINY
 70
    0
  3
Center (.15x) ___ _ ___ _ ___ _ ___ _ ___ _ ___
 72
   65
 73
    4
 40
7.62
 49
4.7625
 74
    0
 49
-0.9525
 74
    0
 49
0.9525
 74
    0
 49
-0.9525
 74
    0
  0
LTYPE
  5
48
330
5
100
AcDbSymbolTableRecord
100
AcDbLinetypeTableRecord
  2
CENTER2
 70
    0
  3
Center (.5x) ___ _ ___ _ ___ _ ___ _ ___ _ ___
 72
   65
 73
    4
 40
28.575
 49
19.05
 74
    0
 49
-3.175
 74
    0
 49
3.175
 74
    0
 49
-3.175
 74
    0
  0
LTYPE
  5
49
330
5
100
AcDbSymbolTableRecord
100
AcDbLinetypeTableRecord
  2
CENTERX2
 70
    0
  3
Center (2x) ________  __  ________  __  _____
 72
   65
 73
    4
 40
101.6
 49
63.5
 74
    0
 49
-12.7
 74
    0
 49
12.7
 74
    0
 49
-12.7
 74
    0
  0
ENDTAB
  0
TABLE
  2
LAYER
  5
2
330
0
100
AcDbSymbolTable
 70
    1
  0
LAYER
  5
10
330
2
100
AcDbSymbolTableRecord
100
AcDbLayerTableRecord
  2
0
 70
    5
 62
    7
  6
CONTINUOUS
370
    0
390
F
1001
LibreCad
1070
    1
  0
LAYER
  5
4A
330
2
100
AcDbSymbolTableRecord
100
AcDbLayerTableRecord
  2
annotations
 70
    4
 62
    7
  6
CONTINUOUS
370
    9
390
F
  0
LAYER
  5
4B
330
2
100
AcDbSymbolTableRecord
100
AcDbLayerTableRecord
  2
buildings
 70
    4
 62
    7
  6
CONTINUOUS
370
    0
390
F
  0
LAYER
  5
4C
330
2
100
AcDbSymbolTableRecord
100
AcDbLayerTableRecord
  2
reference
 70
    4
 62
    3
  6
CONTINUOUS
290
0
370
    0
390
F
1001
LibreCad
1070
    1
  0
LAYER
  5
4D
330
2
100
AcDbSymbolTableRecord
100
AcDbLayerTableRecord
  2
runways
 70
    4
 62
    7
  6
CONTINUOUS
370
   -3
390
F
  0
LAYER
  5
4E
330
2
100
AcDbSymbolTableRecord
100
AcDbLayerTableRecord
  2
satellite view
 70
    4
 62
    1
  6
CONTINUOUS
290
0
370
    0
390
F
1001
LibreCad
1070
    1
  0
LAYER
  5
4F
330
2
100
AcDbSymbolTableRecord
100
AcDbLayerTableRecord
  2
taxiways
 70
    0
 62
    8
  6
CONTINUOUS
370
   -3
390
F
  0
ENDTAB
  0
TABLE
  2
STYLE
  5
3
330
0
100
AcDbSymbolTable
 70
    3
  0
STYLE
  5
50
330
2
100
AcDbSymbolTableRecord
100
AcDbTextStyleTableRecord
  2
Standard
 70
    0
 40
0
 41
1
 50
0
 71
    0
 42
1
  3
txt
  4

  0
ENDTAB
  0
TABLE
  2
VIEW
  5
6
330
0
100
AcDbSymbolTable
 70
    0
  0
ENDTAB
  0
TABLE
  2
UCS
  5
7
330
0
100
AcDbSymbolTable
 70
    0
  0
ENDTAB
  0
TABLE
  2
APPID
  5
9
330
0
100
AcDbSymbolTable
 70
    1
  0
APPID
  5
12
330
9
100
AcDbSymbolTableRecord
100
AcDbRegAppTableRecord
  2
ACAD
 70
    0
  0
APPID
  5
51
330
9
100
AcDbSymbolTableRecord
100
AcDbRegAppTableRecord
  2
LibreCad
 70
    0
  0
ENDTAB
  0
TABLE
  2
DIMSTYLE
  5
A
330
0
100
AcDbSymbolTable
 70
    1
100
AcDbDimStyleTable
 71
    1
  0
DIMSTYLE
105
52
330
A
100
AcDbSymbolTableRecord
100
AcDbDimStyleTableRecord
  2
Standard
 70
    0
 40
1
 41
0.0025
 42
0.000625
 43
0.38
 44
0.00125
 45
0
 46
0
 47
0
 48
0
 49
0
140
0.0025
141
0.09
142
0
143
25.4
144
1
145
0
146
1
147
0.000625
148
0
 71
    0
 72
    0
 73
    0
 74
    1
 75
    0
 76
    0
 77
    0
 78
    1
 79
    0
170
    0
171
    2
172
    0
173
    0
174
    0
175
    0
176
    0
177
    0
178
    0
179
    2
271
    4
272
    4
273
    2
274
    2
275
    0
276
    0
277
    2
278
    0
279
    0
280
    0
281
    0
282
    0
283
    1
284
    0
285
    0
286
    0
288
    0
289
    3
340
standard
341

371
   -2
372
   -2
  0
ENDTAB
  0
TABLE
  2
BLOCK_RECORD
  5
1
330
0
100
AcDbSymbolTable
 70
    2
  0
BLOCK_RECORD
  5
1F
330
1
100
AcDbSymbolTableRecord
100
AcDbBlockTableRecord
  2
*Model_Space
 70
    0
280
    1
281
    0
  0
BLOCK_RECORD
  5
1E
330
1
100
AcDbSymbolTableRecord
100
AcDbBlockTableRecord
  2
*Paper_Space
 70
    0
280
    1
281
    0
  0
ENDTAB
  0
ENDSEC
  0
SECTION
  2
BLOCKS
  0
BLOCK
  5
20
330
1F
100
AcDbEntity
  8
0
100
AcDbBlockBegin
  2
*Model_Space
 70
    0
 10
0
 20
0
 30
0
  3
*Model_Space
  1

  0
ENDBLK
  5
21
330
1F
100
AcDbEntity
  8
0
100
AcDbBlockEnd
  0
BLOCK
  5
1C
330
1B
100
AcDbEntity
  8
0
100
AcDbBlockBegin
  2
*Paper_Space
 70
    0
 10
0
 20
0
 30
0
  3
*Paper_Space
  1

  0
ENDBLK
  5
1D
330
1F
100
AcDbEntity
  8
0
100
AcDbBlockEnd
  0
ENDSEC
  0
SECTION
  2
ENTITIES
  0
HATCH
  5
53
100
AcDbEntity
  8
buildings
  6
ByLayer
 62
  256
370
   -1
100
AcDbHatch
 10
0
 20
0
 30
0
210
0
220
0
230
1
  2
SOLID
 70
    1
 71
    0
 91
    1
 92
    0
 93
    4
 72
    1
 10
305.2324475348203
 20
951.2424837864415
 11
371.7306784753101
 21
1019.087787837535
 72
    1
 10
371.7306784753101
 20
1019.087787837535
 11
339.5934291879503
 21
1050.586949861977
 72
    1
 10
339.5934291879503
 20
1050.586949861977
 11
273.0951982474604
 21
982.7416458108839
 72
    1
 10
273.0951982474604
 20
982.7416458108839
 11
305.2324475348203
 21
951.2424837864415
 97
    0
 75
    0
 76
    1
 98
    0
  0
HATCH
  5
54
100
AcDbEntity
  8
buildings
  6
ByLayer
 62
  256
370
   -1
100
AcDbHatch
 10
0
 20
0
 30
0
210
0
220
0
230
1
  2
SOLID
 70
    1
 71
    0
 91
    1
 92
    0
 93
    4
 72
    1
 10
635.9594461997526
 20
1126.84349505982
 11
650.1368543518273
 21
1130.325669314779
 72
    1
 10
650.1368543518273
 20
1130.325669314779
 11
644.0430494056486
 21
1155.13613358091
 72
    1
 10
644.0430494056486
 20
1155.13613358091
 11
629.8656412535739
 21
1151.653959325951
 72
    1
 10
629.8656412535739
 20
1151.653959325951
 11
635.9594461997526
 21
1126.84349505982
 97
    0
 75
    0
 76
    1
 98
    0
  0
HATCH
  5
55
100
AcDbEntity
  8
buildings
  6
ByLayer
 62
  256
370
   -1
100
AcDbHatch
 10
0
 20
0
 30
0
210
0
220
0
230
1
  2
SOLID
 70
    1
 71
    0
 91
    1
 92
    0
 93
    4
 72
    1
 10
202.1538349445572
 20
528.1268937926558
 11
219.6305597724478
 21
547.0714131542468
 72
    1
 10
219.6305597724478
 20
547.0714131542468
 11
209.9725695096759
 21
555.9811160076812
 72
    1
 10
209.9725695096759
 20
555.9811160076812
 11
192.4958446817853
 21
537.0365966460902
 72
    1
 10
192.4958446817853
 20
537.0365966460902
 11
202.1538349445572
 21
528.1268937926558
 97
    0
 75
    0
 76
    1
 98
    0
  0
HATCH
  5
56
100
AcDbEntity
  8
taxiways
  6
ByLayer
 62
  256
370
   -1
100
AcDbHatch
 10
0
 20
0
 30
0
210
0
220
0
230
1
  2
SOLID
 70
    1
 71
    0
 91
    1
 92
    0
 93
   10
 72
    1
 10
877.082716897666
 20
1096.532295234857
 11
865.7608684541909
 21
1086.724417671468
 72
    1
 10
865.760868454191
 20
1086.724417671468
 11
802.8190842168882
 21
1235.875021761268
 72
    2
 10
949.9364275147437
 20
1291.434039894381
 40
157.2587587224785
 50
159.3109040158521
 51
223.951508265329
 73
    0
 72
    1
 10
836.7215287686046
 20
1400.579373724262
 11
818.3898031404817
 21
1419.298185043379
 72
    1
 10
818.3898031404818
 20
1419.298185043379
 11
889.0843790464543
 21
1492.647056704389
 72
    1
 10
889.0843790464543
 20
1492.647056704389
 11
924.6543438179607
 21
1459.050163112753
 72
    1
 10
924.6543438179607
 20
1459.050163112753
 11
852.1324344989039
 21
1384.261944127475
 72
    1
 10
852.1324344989039
 20
1384.261944127475
 11
845.7867674334865
 21
1388.794563459916
 72
    2
 10
947.6210215585214
 20
1290.818728357382
 40
141.3134090496758
 50
136.1062687273485
 51
199.978115122349
 73
    1
 72
    1
 10
814.8114024873479
 20
1242.537420800412
 11
877.082716897666
 21
1096.532295234857
 97
    0
 75
    0
 76
    1
 98
    0
  0
HATCH
  5
57
100
AcDbEntity
  8
buildings
  6
ByLayer
 62
  256
370
   -1
100
AcDbHatch
 10
0
 20
0
 30
0
210
0
220
0
230
1
  2
SOLID
 70
    1
 71
    0
 91
    1
 92
    0
 93
    4
 72
    1
 10
810.9531100705461
 20
1420.050180558693
 11
852.773480726994
 21
1463.074087844728
 72
    1
 10
852.773480726994
 20
1463.074087844728
 11
818.3543548981661
 21
1496.530384369886
 72
    1
 10
818.3543548981661
 20
1496.530384369886
 11
776.5339842417183
 21
1453.506477083852
 72
    1
 10
776.5339842417183
 20
1453.506477083852
 11
810.9531100705461
 21
1420.050180558693
 97
    0
 75
    0
 76
    1
 98
    0
  0
HATCH
  5
58
100
AcDbEntity
  8
buildings
  6
ByLayer
 62
  256
370
   -1
100
AcDbHatch
 10
0
 20
0
 30
0
210
0
220
0
230
1
  2
SOLID
 70
    1
 71
    0
 91
    1
 92
    0
 93
    4
 72
    1
 10
810.9531100705461
 20
1420.050180558693
 11
852.773480726994
 21
1463.074087844728
 72
    1
 10
852.773480726994
 20
1463.074087844728
 11
818.3543548981661
 21
1496.530384369886
 72
    1
 10
818.3543548981661
 20
1496.530384369886
 11
776.5339842417183
 21
1453.506477083852
 72
    1
 10
776.5339842417183
 20
1453.506477083852
 11
810.9531100705461
 21
1420.050180558693
 97
    0
 75
    0
 76
    1
 98
    0
  0
HATCH
  5
59
100
AcDbEntity
  8
buildings
  6
ByLayer
 62
  256
370
   -1
100
AcDbHatch
 10
0
 20
0
 30
0
210
0
220
0
230
1
  2
SOLID
 70
    1
 71
    0
 91
    1
 92
    0
 93
    4
 72
    1
 10
916.105121542737
 20
1485.263921464992
 11
966.4331004467974
 21
1533.916717267828
 72
    1
 10
966.4331004467974
 20
1533.916717267828
 11
902.4894259630702
 21
1600.062060970307
 72
    1
 10
902.4894259630702
 20
1600.062060970307
 11
852.1614470590098
 21
1551.409265167471
 72
    1
 10
852.1614470590098
 20
1551.409265167471
 11
916.105121542737
 21
1485.263921464992
 97
    0
 75
    0
 76
    1
 98
    0
  0
HATCH
  5
5A
100
AcDbEntity
  8
buildings
  6
ByLayer
 62
  256
370
   -1
100
AcDbHatch
 10
0
 20
0
 30
0
210
0
220
0
230
1
  2
SOLID
 70
    1
 71
    0
 91
    1
 92
    0
 93
    4
 72
    1
 10
796.078884305329
 20
1373.071607543373
 11
785.7730349322784
 21
1354.774354506373
 72
    1
 10
785.7730349322784
 20
1354.774354506373
 11
763.1192930769455
 21
1367.533977539674
 72
    1
 10
763.1192930769455
 20
1367.533977539674
 11
773.4251424499962
 21
1385.831230576674
 72
    1
 10
773.4251424499962
 20
1385.831230576674
 11
796.078884305329
 21
1373.071607543373
 97
    0
 75
    0
 76
    1
 98
    0
  0
HATCH
  5
5B
100
AcDbEntity
  8
taxiways
  6
ByLayer
 62
  256
370
   -1
100
AcDbHatch
 10
0
 20
0
 30
0
210
0
220
0
230
1
  2
SOLID
 70
    1
 71
    0
 91
    1
 92
    0
 93
    4
 72
    1
 10
334.5848593977079
 20
905.8987611713771
 11
413.3260488765075
 21
986.9470497372919
 72
    1
 10
413.3260488765075
 20
986.9470497372919
 11
377.4639742898195
 21
1021.788284019947
 72
    1
 10
377.4639742898195
 20
1021.788284019947
 11
298.7227848110199
 21
940.7399954540318
 72
    1
 10
298.7227848110199
 20
940.7399954540318
 11
334.5848593977079
 21
905.8987611713771
 97
    0
 75
    0
 76
    1
 98
    0
  0
HATCH
  5
5C
100
AcDbEntity
  8
buildings
  6
ByLayer
 62
  256
370
   -1
100
AcDbHatch
 10
0
 20
0
 30
0
210
0
220
0
230
1
  2
SOLID
 70
    1
 71
    0
 91
    1
 92
    0
 93
    4
 72
    1
 10
195.7358040658605
 20
507.8766076983834
 11
205.515048238835
 21
518.3802372082497
 72
    1
 10
205.515048238835
 20
518.3802372082497
 11
195.0114187289687
 21
528.1594813812242
 72
    1
 10
195.0114187289687
 20
528.1594813812242
 11
185.2321745559942
 21
517.6558518713579
 72
    1
 10
185.2321745559942
 20
517.6558518713579
 11
195.7358040658605
 21
507.8766076983834
 97
    0
 75
    0
 76
    1
 98
    0
  0
HATCH
  5
5D
100
AcDbEntity
  8
buildings
  6
ByLayer
 62
  256
370
   -1
100
AcDbHatch
 10
0
 20
0
 30
0
210
0
220
0
230
1
  2
SOLID
 70
    1
 71
    0
 91
    1
 92
    0
 93
    4
 72
    1
 10
3.172833532709102
 20
416.5477166513842
 11
-9.505523081167217
 21
399.8067706335698
 72
    1
 10
-9.505523081167217
 20
399.8067706335698
 11
-30.23240862703274
 21
415.5037835840834
 72
    1
 10
-30.23240862703274
 20
415.5037835840834
 11
-17.55405201315631
 21
432.2447296018978
 72
    1
 10
-17.55405201315631
 20
432.2447296018978
 11
3.172833532709102
 21
416.5477166513842
 97
    0
 75
    0
 76
    1
 98
    0
  0
HATCH
  5
5E
100
AcDbEntity
  8
buildings
  6
ByLayer
 62
  256
370
   -1
100
AcDbHatch
 10
0
 20
0
 30
0
210
0
220
0
230
1
  2
SOLID
 70
    1
 71
    0
 91
    1
 92
    0
 93
    4
 72
    1
 10
-8.611976731639064
 20
567.0306784884457
 11
7.696523112364475
 21
567.5704390690075
 72
    1
 10
7.696523112364475
 20
567.5704390690075
 11
6.916868940441833
 21
591.1271610659015
 72
    1
 10
6.916868940441833
 20
591.1271610659015
 11
-9.391630903561706
 21
590.5874004853397
 72
    1
 10
-9.391630903561706
 20
590.5874004853397
 11
-8.611976731639064
 21
567.0306784884457
 97
    0
 75
    0
 76
    1
 98
    0
  0
HATCH
  5
5F
100
AcDbEntity
  8
buildings
  6
ByLayer
 62
  256
370
   -1
100
AcDbHatch
 10
0
 20
0
 30
0
210
0
220
0
230
1
  2
SOLID
 70
    1
 71
    0
 91
    1
 92
    0
 93
    4
 72
    1
 10
3.172833532709102
 20
416.5477166513842
 11
-9.505523081167217
 21
399.8067706335698
 72
    1
 10
-9.505523081167217
 20
399.8067706335698
 11
-30.23240862703274
 21
415.5037835840834
 72
    1
 10
-30.23240862703274
 20
415.5037835840834
 11
-17.55405201315631
 21
432.2447296018978
 72
    1
 10
-17.55405201315631
 20
432.2447296018978
 11
3.172833532709102
 21
416.5477166513842
 97
    0
 75
    0
 76
    1
 98
    0
  0
HATCH
  5
60
100
AcDbEntity
  8
buildings
  6
ByLayer
 62
  256
370
   -1
100
AcDbHatch
 10
0
 20
0
 30
0
210
0
220
0
230
1
  2
SOLID
 70
    1
 71
    0
 91
    1
 92
    0
 93
    4
 72
    1
 10
-134.3264436606491
 20
417.6703822326457
 11
-143.6840328383802
 21
398.8705012548095
 72
    1
 10
-143.6840328383802
 20
398.8705012548095
 11
-166.9600759537965
 21
410.45608785581
 72
    1
 10
-166.9600759537965
 20
410.45608785581
 11
-157.6024867760653
 21
429.2559688336462
 72
    1
 10
-157.6024867760653
 20
429.2559688336462
 11
-134.3264436606491
 21
417.6703822326457
 97
    0
 75
    0
 76
    1
 98
    0
  0
HATCH
  5
61
100
AcDbEntity
  8
buildings
  6
ByLayer
 62
  256
370
   -1
100
AcDbHatch
 10
0
 20
0
 30
0
210
0
220
0
230
1
  2
SOLID
 70
    1
 71
    0
 91
    1
 92
    0
 93
    4
 72
    1
 10
-38.50791909894836
 20
509.063621788256
 11
-54.84469392253627
 21
495.8685549690472
 72
    1
 10
-54.84469392253627
 20
495.8685549690472
 11
-71.1814433177471
 21
516.0950380839656
 72
    1
 10
-71.1814433177471
 20
516.0950380839656
 11
-54.84466849415919
 21
529.2901049031743
 72
    1
 10
-54.84466849415919
 20
529.2901049031743
 11
-38.50791909894836
 21
509.063621788256
 97
    0
 75
    0
 76
    1
 98
    0
  0
HATCH
  5
62
100
AcDbEntity
  8
buildings
  6
ByLayer
 62
  256
370
   -1
100
AcDbHatch
 10
0
 20
0
 30
0
210
0
220
0
230
1
  2
SOLID
 70
    1
 71
    0
 91
    1
 92
    0
 93
    4
 72
    1
 10
-15.63340526900057
 20
523.1100182438098
 11
-34.28366425593025
 21
513.4576693213739
 72
    1
 10
-34.28366425593025
 20
513.4576693213739
 11
-46.23419149323179
 21
536.5484661623345
 72
    1
 10
-46.23419149323179
 20
536.5484661623345
 11
-27.58393250630212
 21
546.2008150847704
 72
    1
 10
-27.58393250630212
 20
546.2008150847704
 11
-15.63340526900057
 21
523.1100182438098
 97
    0
 75
    0
 76
    1
 98
    0
  0
HATCH
  5
63
100
AcDbEntity
  8
buildings
  6
ByLayer
 62
  256
370
   -1
100
AcDbHatch
 10
0
 20
0
 30
0
210
0
220
0
230
1
  2
SOLID
 70
    1
 71
    0
 91
    1
 92
    0
 93
    4
 72
    1
 10
75.74297917007846
 20
547.7413335773042
 11
54.75454895210358
 21
548.438324958312
 72
    1
 10
54.75454895210358
 20
548.438324958312
 11
55.61749066192276
 21
574.4240004662809
 72
    1
 10
55.61749066192276
 20
574.4240004662809
 11
76.60592087989764
 21
573.7270090852732
 72
    1
 10
76.60592087989764
 20
573.7270090852732
 11
75.74297917007846
 21
547.7413335773042
 97
    0
 75
    0
 76
    1
 98
    0
  0
HATCH
  5
64
100
AcDbEntity
  8
buildings
  6
ByLayer
 62
  256
370
   -1
100
AcDbHatch
 10
0
 20
0
 30
0
210
0
220
0
230
1
  2
SOLID
 70
    1
 71
    0
 91
    1
 92
    0
 93
    4
 72
    1
 10
136.3373625061412
 20
529.4035596729694
 11
146.7021912346783
 21
552.5251006827829
 72
    1
 10
146.7021912346783
 20
552.5251006827829
 11
127.5671228127637
 21
561.2953403761603
 72
    1
 10
127.5671228127637
 20
561.2953403761603
 11
117.2022940842267
 21
538.9710938839266
 72
    1
 10
117.2022940842267
 20
538.9710938839266
 11
136.3373625061412
 21
529.4035596729694
 97
    0
 75
    0
 76
    1
 98
    0
  0
HATCH
  5
65
100
AcDbEntity
  8
buildings
  6
ByLayer
 62
  256
370
   -1
100
AcDbHatch
 10
0
 20
0
 30
0
210
0
220
0
230
1
  2
SOLID
 70
    1
 71
    0
 91
    1
 92
    0
 93
    4
 72
    1
 10
118.4888653562183
 20
416.5004084526288
 11
103.7969827128993
 21
431.5053604483847
 72
    1
 10
103.7969827128993
 20
431.5053604483847
 11
122.3745423266924
 21
449.6953103877321
 72
    1
 10
122.3745423266924
 20
449.6953103877321
 11
137.0664249700114
 21
434.6903583919761
 72
    1
 10
137.0664249700114
 20
434.6903583919761
 11
118.4888653562183
 21
416.5004084526288
 97
    0
 75
    0
 76
    1
 98
    0
  0
HATCH
  5
66
100
AcDbEntity
  8
taxiways
  6
ByLayer
 62
  256
370
   -1
100
AcDbHatch
 10
0
 20
0
 30
0
210
0
220
0
230
1
  2
SOLID
 70
    1
 71
    0
 91
    1
 92
    0
 93
    7
 72
    1
 10
904.1694835110508
 20
1040.513049824578
 11
891.8717102203898
 21
1067.908437190876
 72
    1
 10
891.8717102203898
 20
1067.908437190876
 11
896.165288926987
 21
1073.633208799672
 72
    1
 10
896.165288926987
 20
1073.633208799672
 11
880.8992313035302
 21
1088.899266423129
 72
    1
 10
880.8992313035302
 20
1088.899266423129
 11
877.082716897666
 21
1096.532295234857
 72
    1
 10
877.082716897666
 20
1096.532295234857
 11
865.7608684541909
 21
1086.724417671468
 72
    1
 10
865.7608684541909
 20
1086.724417671468
 11
885.0755521546056
 21
1067.857966135662
 72
    1
 10
885.0755521546056
 20
1067.857966135662
 11
904.1694835110504
 21
1040.513049824578
 97
    0
 75
    0
 76
    1
 98
    0
  0
HATCH
  5
67
100
AcDbEntity
  8
taxiways
  6
ByLayer
 62
  256
370
   -1
100
AcDbHatch
 10
0
 20
0
 30
0
210
0
220
0
230
1
  2
SOLID
 70
    1
 71
    0
 91
    1
 92
    0
 93
    4
 72
    1
 10
285.9497057220545
 20
859.5717057548505
 11
496.1055135418777
 21
1078.340456518109
 72
    1
 10
496.1055135418777
 20
1078.340456518109
 11
556.3961141459254
 21
1019.772444502749
 72
    1
 10
556.3961141459254
 20
1019.772444502749
 11
346.2403063261022
 21
801.0036937394901
 72
    1
 10
346.2403063261022
 20
801.0036937394901
 11
285.9497057220545
 21
859.5717057548505
 97
    0
 75
    0
 76
    1
 98
    0
  0
HATCH
  5
68
100
AcDbEntity
  8
taxiways
  6
ByLayer
 62
  256
370
   -1
100
AcDbHatch
 10
0
 20
0
 30
0
210
0
220
0
230
1
  2
SOLID
 70
    1
 71
    0
 91
    1
 92
    0
 93
    8
 72
    1
 10
394.08928661374
 20
827.0966433468085
 11
488.754862579674
 21
735.9371998240572
 72
    2
 10
507.2707480121221
 20
759.8665537487796
 40
30.25643720933063
 50
232.268267145628
 51
303.1505127690949
 73
    1
 72
    1
 10
523.8161870115014
 20
734.5347468467841
 11
464.2119354773948
 21
674.229268824041
 72
    2
 10
442.4331453477642
 20
685.7342755155081
 40
24.63089276662943
 50
332.154003875935
 51
46.77064054011614
 73
    1
 72
    1
 10
459.303350056939
 20
703.680781346776
 11
361.8328681364588
 21
799.0475838013465
 72
    2
 10
353.1348209994364
 20
792.8374713600192
 40
10.68744686685236
 50
35.52555727740044
 51
130.1734731267515
 73
    1
 72
    1
 10
346.2403063261022
 20
801.0036937394901
 11
398.2966455455593
 21
856.5481558695435
 72
    2
 10
412.6571796774287
 20
839.4703690942076
 40
22.31312935687027
 50
130.0601319383767
 51
213.6796633533116
 73
    1
 97
    0
 75
    0
 76
    1
 98
    0
  0
HATCH
  5
69
100
AcDbEntity
  8
taxiways
  6
ByLayer
 62
  256
370
   -1
100
AcDbHatch
 10
0
 20
0
 30
0
210
0
220
0
230
1
  2
SOLID
 70
    1
 71
    0
 91
    1
 92
    0
 93
    8
 72
    1
 10
556.5115732706676
 20
998.6113832686407
 11
659.3625660384557
 21
906.1252192293892
 72
    2
 10
675.9538001587645
 20
931.5403227191462
 40
30.35121966297153
 50
236.8630952597673
 51
300.2727123719033
 73
    1
 72
    1
 10
691.2543467416458
 20
905.3279247118095
 11
629.8626688880049
 21
843.1389523405888
 72
    2
 10
601.1424788760689
 20
859.4102092048727
 40
33.00913683005374
 50
330.4665296407084
 51
34.73859476429119
 73
    1
 72
    1
 10
628.2680798528454
 20
878.219911114098
 11
533.3900322608547
 21
968.31419160061
 72
    2
 10
519.8360254619989
 20
941.2061780028987
 40
30.30768056973566
 50
63.43494882292182
 51
125.3624618870694
 73
    1
 72
    1
 10
502.2955460752444
 20
965.9223080478707
 11
556.396114145923
 21
1019.772444502751
 72
    2
 10
572.7498334968764
 20
1009.280828174869
 40
19.42982629312748
 50
147.3180774469002
 51
213.3071515844356
 73
    1
 97
    0
 75
    0
 76
    1
 98
    0
  0
HATCH
  5
6A
100
AcDbEntity
  8
taxiways
  6
ByLayer
 62
  256
370
   -1
100
AcDbHatch
 10
0
 20
0
 30
0
210
0
220
0
230
1
  2
SOLID
 70
    1
 71
    0
 91
    1
 92
    0
 93
    8
 72
    1
 10
885.075552154607
 20
1067.857966135663
 11
923.2634148674946
 21
1013.168133513492
 72
    1
 10
923.2634148674946
 20
1013.168133513492
 11
922.8697708551196
 21
1008.044839499625
 72
    1
 10
922.8697708551196
 20
1008.044839499625
 11
892.2403126726127
 21
978.2545445549948
 72
    2
 10
844.4080081136283
 20
994.8280185030636
 40
50.62222237447465
 50
340.8892476356709
 51
5.946863053973313
 73
    1
 72
    1
 10
894.7578023862434
 20
1000.072788739794
 11
881.7507721991515
 21
1031.121828541239
 72
    2
 10
864.1493232846835
 20
1010.331559322839
 40
27.24052675816298
 50
49.74809471765128
 51
117.5715217905289
 73
    1
 72
    1
 10
851.5408956355832
 20
1034.478481492747
 11
879.2332824855208
 21
1067.205847769946
 72
    1
 10
879.2332824855208
 20
1067.205847769946
 11
885.0755521546076
 21
1067.857966135662
 97
    0
 75
    0
 76
    1
 98
    0
  0
HATCH
  5
6B
100
AcDbEntity
  8
taxiways
  6
ByLayer
 62
  256
370
   -1
100
AcDbHatch
 10
0
 20
0
 30
0
210
0
220
0
230
1
  2
SOLID
 70
    1
 71
    0
 91
    1
 92
    0
 93
    8
 72
    1
 10
227.8172861720447
 20
397.5954065812114
 11
271.7534770766533
 21
442.0740195957534
 72
    2
 10
287.9242011293084
 20
428.5800470925341
 40
21.06132973733509
 50
140.1560394742232
 51
235.8226140585707
 73
    1
 72
    1
 10
276.0928539561208
 20
411.1559593295473
 11
307.0109142223269
 21
392.1711854818769
 72
    2
 10
314.8886492840347
 20
410.2287959555915
 40
19.70116762333806
 50
246.4304902505661
 51
306.2498932412536
 73
    1
 72
    1
 10
326.5381101799308
 20
394.3408739216107
 11
286.3988740448562
 21
353.1167935666693
 72
    2
 10
269.090677627889
 20
367.8608127366783
 40
22.73674920682173
 50
319.573921259901
 51
17.80621379205845
 73
    1
 72
    1
 10
290.7382509243237
 20
374.8136779640068
 11
253.8535474488498
 21
396.5105623613445
 72
    2
 10
239.5925626715997
 20
367.2244851389376
 40
32.57376253817996
 50
64.03602875454435
 51
111.1920831846779
 73
    1
 97
    0
 75
    0
 76
    1
 98
    0
  0
HATCH
  5
6C
100
AcDbEntity
  8
taxiways
  6
ByLayer
 62
  256
370
   -1
100
AcDbHatch
 10
0
 20
0
 30
0
210
0
220
0
230
1
  2
SOLID
 70
    1
 71
    0
 91
    1
 92
    0
 93
   19
 72
    2
 10
-102.6238705384519
 20
119.2477265563024
 40
19.43175904029506
 50
65.15306498145569
 51
158.4497539912479
 73
    0
 72
    2
 10
-47.64937325937601
 20
160.6172297139672
 40
87.68657557601432
 50
146.4140340031872
 51
184.8343088428389
 73
    0
 72
    2
 10
1704.024449440522
 20
-147.5567122238608
 40
1865.925957248261
 50
189.7366046438755
 51
196.335068896257
 73
    0
 72
    2
 10
183.5846267159652
 20
321.491413026531
 40
275.8573518394405
 50
191.6598881392979
 51
206.2559643966842
 73
    0
 72
    1
 10
-63.8116104659253
 20
443.5257540626127
 11
-55.3968926022868
 21
456.1478308580704
 72
    2
 10
33.82413596251438
 20
395.9502338335793
 40
107.6296549547757
 50
214.0076144578758
 51
257.4943195285003
 73
    0
 72
    2
 10
40.69105754798291
 20
377.40726781873
 40
127.2480294645946
 50
256.2835593936279
 51
288.2976606916492
 73
    0
 72
    2
 10
-165.4894513182278
 20
-29.10089927842466
 40
581.9356067472548
 50
295.0210643872805
 51
301.0466393956471
 73
    0
 72
    1
 10
134.635485818216
 20
469.4711341421647
 11
205.809974414825
 21
425.6444786023808
 72
    1
 10
205.809974414825
 20
425.6444786023808
 11
211.4197863239173
 21
413.022401806923
 72
    1
 10
211.4197863239173
 20
413.022401806923
 11
234.5602604489232
 21
434.0591964660193
 72
    1
 10
234.5602604489232
 20
434.0591964660193
 11
217.7308247216462
 21
434.7604229546558
 72
    1
 10
217.7308247216462
 20
434.7604229546558
 11
117.806050090939
 21
496.4683539546714
 72
    2
 10
35.30292347413031
 20
345.8637607061607
 40
171.7221867118472
 50
61.28550724004621
 51
95.47015683281464
 73
    1
 72
    2
 10
47.19305083543314
 20
372.1375347765054
 40
147.400772016318
 50
101.0532813029092
 51
176.8120141557688
 73
    1
 72
    1
 10
-99.97961071111402
 20
380.3348077567121
 11
-143.2697514313902
 21
207.1742448756074
 72
    2
 10
29.19311284450376
 20
159.0415404391044
 40
179.053614290852
 50
164.4061001324053
 51
187.405452567654
 73
    1
 72
    2
 10
-69.28280820832363
 20
147.7538217850013
 40
79.958269103737
 50
188.4796495278065
 51
234.8690080638089
 73
    1
 72
    1
 10
-115.2946114076884
 20
82.36086524984725
 11
-94.45873154513689
 21
101.6146960561321
 97
    0
 75
    0
 76
    1
 98
    0
  0
HATCH
  5
6D
100
AcDbEntity
  8
taxiways
  6
ByLayer
 62
  256
370
   -1
100
AcDbHatch
 10
0
 20
0
 30
0
210
0
220
0
230
1
  2
SOLID
 70
    1
 71
    0
 91
    1
 92
    0
 93
   10
 72
    1
 10
-95.97992770727261
 20
63.49441371404188
 11
-32.24833722261405
 21
31.38542251390869
 72
    1
 10
-32.24833722261405
 20
31.38542251390869
 11
-24.17974952285688
 21
30.83323764659602
 72
    1
 10
-24.17974952285688
 20
30.83323764659602
 11
-5.679806934899267
 21
50.30686142339351
 72
    1
 10
-5.679806934899267
 20
50.30686142339351
 11
-5.679806934899267
 21
58.42087133039247
 72
    2
 10
-14.89985887879135
 20
68.63996403683741
 40
13.76369185905382
 50
47.94202774485952
 51
109.2211413524907
 73
    0
 72
    1
 10
-19.43107388059914
 20
55.64352974898844
 11
-58.87317295483592
 21
75.06643374625135
 72
    2
 10
-37.23161418865356
 20
89.77572614144819
 40
26.16716164580179
 50
145.7969136447088
 51
200.3781025611839
 73
    0
 72
    1
 10
-61.76110766377138
 20
98.88749317379011
 11
-66.79355587322657
 21
98.34520795698828
 72
    1
 10
-66.79355587322657
 20
98.34520795698828
 11
-95.25847630816772
 21
68.80680401135112
 72
    1
 10
-95.25847630816772
 20
68.80680401135112
 11
-95.97992770727261
 21
63.49441371404188
 97
    0
 75
    0
 76
    1
 98
    0
  0
HATCH
  5
6E
100
AcDbEntity
  8
runways
  6
ByLayer
 62
  256
370
   -1
100
AcDbHatch
 10
0
 20
0
 30
0
210
0
220
0
230
1
  2
SOLID
 70
    1
 71
    0
 91
    1
 92
    0
 93
    4
 72
    1
 10
0
 20
0
 11
955.5117520901086
 21
981.7827109995833
 72
    1
 10
955.5117520901086
 20
981.7827109995833
 11
923.2634148674946
 21
1013.168133513492
 72
    1
 10
923.2634148674946
 20
1013.168133513492
 11
-32.24833722261405
 21
31.38542251390868
 72
    1
 10
-32.24833722261405
 20
31.38542251390868
 11
0
 21
0
 97
    0
 75
    0
 76
    1
 98
    0
  0
HATCH
  5
6F
100
AcDbEntity
  8
runways
  6
ByLayer
 62
  256
370
   -1
100
AcDbHatch
 10
0
 20
0
 30
0
210
0
220
0
230
1
  2
SOLID
 70
    1
 71
    0
 91
    1
 92
    0
 93
    4
 72
    1
 10
-95.97992770727261
 20
63.49441371404188
 11
885.0755521546067
 21
1067.857966135663
 72
    1
 10
885.0755521546067
 20
1067.857966135663
 11
865.7608684541909
 21
1086.724417671468
 72
    1
 10
865.7608684541909
 20
1086.724417671468
 11
-115.2946114076884
 21
82.36086524984725
 72
    1
 10
-115.2946114076884
 20
82.36086524984725
 11
-95.97992770727261
 21
63.49441371404188
 97
    0
 75
    0
 76
    1
 98
    0
  0
IMAGE
  5
72
100
AcDbEntity
  8
satellite view
  6
ByLayer
 62
  256
370
   -1
100
AcDbRasterImage
 10
-282.4312342862233
 20
-230.4461361684448
 30
0
 11
1.875
 21
0
 31
0
 12
1.148068456708479e-016
 22
1.875
 32
0
 13
900
 23
1037
340
70
 70
    1
280
    0
281
   50
282
   50
283
    0
360
71
  0
IMAGE
  5
75
100
AcDbEntity
  8
satellite view
  6
ByLayer
 62
  256
370
   -1
100
AcDbRasterImage
 10
-813.0336915676273
 20
-659.0407424646272
 30
0
 11
3.515625
 21
0
 31
0
 12
2.152628356328398e-016
 22
3.515625
 32
0
 13
900
 23
1037
340
73
 70
    1
280
    0
281
   50
282
   50
283
    0
360
74
  0
LWPOLYLINE
  5
76
100
AcDbEntity
  8
buildings
  6
ByLayer
 62
  256
370
   -1
100
AcDbPolyline
 90
    4
 70
    1
 43
0
 10
810.9531100705461
 20
1420.050180558693
 10
852.773480726994
 20
1463.074087844728
 10
818.3543548981661
 20
1496.530384369886
 10
776.5339842417183
 20
1453.506477083852
  0
LWPOLYLINE
  5
77
100
AcDbEntity
  8
runways
  6
ByLayer
 62
  256
370
   -1
100
AcDbPolyline
 90
    4
 70
    1
 43
0
 10
-95.97992770727261
 20
63.49441371404188
 10
885.0755521546067
 20
1067.857966135663
 10
865.7608684541909
 20
1086.724417671468
 10
-115.2946114076884
 20
82.36086524984725
  0
LWPOLYLINE
  5
78
100
AcDbEntity
  8
runways
  6
ByLayer
 62
  256
370
   -1
100
AcDbPolyline
 90
    5
 70
    0
 43
0
 10
0
 20
0
 10
955.5117520901086
 20
981.7827109995833
 10
923.2634148674946
 20
1013.168133513492
 10
-32.24833722261405
 20
31.38542251390868
 10
0
 20
0
  0
LINE
  5
79
100
AcDbEntity
  8
taxiways
  6
ByLayer
 62
  256
370
   -1
100
AcDbLine
 10
-95.97992770727261
 20
63.49441371404188
 11
-32.24833722261405
 21
31.38542251390869
  0
LINE
  5
7A
100
AcDbEntity
  8
taxiways
  6
ByLayer
 62
  256
370
   -1
100
AcDbLine
 10
-32.24833722261405
 20
31.38542251390869
 11
-24.17974952285688
 21
30.83323764659602
  0
LINE
  5
7B
100
AcDbEntity
  8
taxiways
  6
ByLayer
 62
  256
370
   -1
100
AcDbLine
 10
-24.17974952285688
 20
30.83323764659602
 11
-5.679806934899267
 21
50.30686142339351
  0
LINE
  5
7C
100
AcDbEntity
  8
taxiways
  6
ByLayer
 62
  256
370
   -1
100
AcDbLine
 10
-5.679806934899267
 20
50.30686142339351
 11
-5.679806934899267
 21
58.42087133039247
  0
LINE
  5
7D
100
AcDbEntity
  8
taxiways
  6
ByLayer
 62
  256
370
   -1
100
AcDbLine
 10
-95.97992770727261
 20
63.49441371404188
 11
-95.25847630816772
 21
68.80680401135112
  0
LINE
  5
7E
100
AcDbEntity
  8
taxiways
  6
ByLayer
 62
  256
370
   -1
100
AcDbLine
 10
-95.25847630816772
 20
68.80680401135112
 11
-66.79355587322657
 21
98.34520795698828
  0
LINE
  5
7F
100
AcDbEntity
  8
taxiways
  6
ByLayer
 62
  256
370
   -1
100
AcDbLine
 10
-66.79355587322657
 20
98.34520795698828
 11
-61.76110766377138
 21
98.88749317379011
  0
ARC
  5
80
100
AcDbEntity
  8
taxiways
  6
ByLayer
 62
  256
370
   -1
100
AcDbCircle
 10
-37.23161418865356
 20
89.77572614144819
 40
26.16716164580179
100
AcDbArc
 50
159.6218974388161
 51
214.2030863552912
  0
ARC
  5
81
100
AcDbEntity
  8
taxiways
  6
ByLayer
 62
  256
370
   -1
100
AcDbCircle
 10
-14.89985887879135
 20
68.63996403683741
 40
13.76369185905382
100
AcDbArc
 50
250.7788586475093
 51
312.0579722551405
  0
LINE
  5
82
100
AcDbEntity
  8
taxiways
  6
ByLayer
 62
  256
370
   -1
100
AcDbLine
 10
-58.87317295483592
 20
75.06643374625135
 11
-19.43107388059914
 21
55.64352974898844
  0
ARC
  5
83
100
AcDbEntity
  8
taxiways
  6
ByLayer
 62
  256
370
   -1
100
AcDbCircle
 10
-102.6238705384519
 20
119.2477265563024
 40
19.43175904029506
100
AcDbArc
 50
201.5502460087521
 51
294.8469350185443
  0
ARC
  5
84
100
AcDbEntity
  8
taxiways
  6
ByLayer
 62
  256
370
   -1
100
AcDbCircle
 10
-69.28280820832363
 20
147.7538217850013
 40
79.958269103737
100
AcDbArc
 50
188.4796495278065
 51
234.8690080638089
  0
LINE
  5
85
100
AcDbEntity
  8
taxiways
  6
ByLayer
 62
  256
370
   -1
100
AcDbLine
 10
-115.2946114076884
 20
82.36086524984725
 11
-94.45873154513689
 21
101.6146960561321
  0
ARC
  5
86
100
AcDbEntity
  8
taxiways
  6
ByLayer
 62
  256
370
   -1
100
AcDbCircle
 10
-47.64937325937601
 20
160.6172297139672
 40
87.68657557601432
100
AcDbArc
 50
175.1656911571611
 51
213.5859659968128
  0
ARC
  5
87
100
AcDbEntity
  8
taxiways
  6
ByLayer
 62
  256
370
   -1
100
AcDbCircle
 10
29.19311284450376
 20
159.0415404391044
 40
179.053614290852
100
AcDbArc
 50
164.4061001324053
 51
187.405452567654
  0
LINE
  5
88
100
AcDbEntity
  8
taxiways
  6
ByLayer
 62
  256
370
   -1
100
AcDbLine
 10
-143.2697514313902
 20
207.1742448756074
 11
-99.97961071111402
 21
380.3348077567121
  0
ARC
  5
89
100
AcDbEntity
  8
taxiways
  6
ByLayer
 62
  256
370
   -1
100
AcDbCircle
 10
1704.024449440522
 20
-147.5567122238608
 40
1865.925957248261
100
AcDbArc
 50
163.664931103743
 51
170.2633953561245
  0
ARC
  5
8A
100
AcDbEntity
  8
taxiways
  6
ByLayer
 62
  256
370
   -1
100
AcDbCircle
 10
183.5846267159652
 20
321.491413026531
 40
275.8573518394405
100
AcDbArc
 50
153.7440356033158
 51
168.3401118607021
  0
LINE
  5
8B
100
AcDbEntity
  8
taxiways
  6
ByLayer
 62
  256
370
   -1
100
AcDbLine
 10
-63.8116104659253
 20
443.5257540626127
 11
-55.3968926022868
 21
456.1478308580704
  0
ARC
  5
8C
100
AcDbEntity
  8
taxiways
  6
ByLayer
 62
  256
370
   -1
100
AcDbCircle
 10
33.82413596251438
 20
395.9502338335793
 40
107.6296549547757
100
AcDbArc
 50
102.5056804714997
 51
145.9923855421242
  0
ARC
  5
8D
100
AcDbEntity
  8
taxiways
  6
ByLayer
 62
  256
370
   -1
100
AcDbCircle
 10
40.69105754798291
 20
377.40726781873
 40
127.2480294645946
100
AcDbArc
 50
71.70233930835077
 51
103.7164406063721
  0
ARC
  5
8E
100
AcDbEntity
  8
taxiways
  6
ByLayer
 62
  256
370
   -1
100
AcDbCircle
 10
-165.4894513182278
 20
-29.10089927842466
 40
581.9356067472548
100
AcDbArc
 50
58.95336060435293
 51
64.97893561271951
  0
LINE
  5
8F
100
AcDbEntity
  8
taxiways
  6
ByLayer
 62
  256
370
   -1
100
AcDbLine
 10
134.635485818216
 20
469.4711341421647
 11
205.809974414825
 21
425.6444786023808
  0
LINE
  5
90
100
AcDbEntity
  8
taxiways
  6
ByLayer
 62
  256
370
   -1
100
AcDbLine
 10
205.809974414825
 20
425.6444786023808
 11
211.4197863239173
 21
413.022401806923
  0
LINE
  5
91
100
AcDbEntity
  8
taxiways
  6
ByLayer
 62
  256
370
   -1
100
AcDbLine
 10
211.4197863239173
 20
413.022401806923
 11
234.5602604489232
 21
434.0591964660193
  0
LINE
  5
92
100
AcDbEntity
  8
taxiways
  6
ByLayer
 62
  256
370
   -1
100
AcDbLine
 10
234.5602604489232
 20
434.0591964660193
 11
217.7308247216462
 21
434.7604229546558
  0
LINE
  5
93
100
AcDbEntity
  8
taxiways
  6
ByLayer
 62
  256
370
   -1
100
AcDbLine
 10
217.7308247216462
 20
434.7604229546558
 11
117.806050090939
 21
496.4683539546714
  0
ARC
  5
94
100
AcDbEntity
  8
taxiways
  6
ByLayer
 62
  256
370
   -1
100
AcDbCircle
 10
35.30292347413031
 20
345.8637607061607
 40
171.7221867118472
100
AcDbArc
 50
61.28550724004621
 51
95.47015683281464
  0
ARC
  5
95
100
AcDbEntity
  8
taxiways
  6
ByLayer
 62
  256
370
   -1
100
AcDbCircle
 10
47.19305083543314
 20
372.1375347765054
 40
147.400772016318
100
AcDbArc
 50
101.0532813029092
 51
176.8120141557688
  0
LINE
  5
96
100
AcDbEntity
  8
taxiways
  6
ByLayer
 62
  256
370
   -1
100
AcDbLine
 10
227.8172861720447
 20
397.5954065812114
 11
271.7534770766533
 21
442.0740195957534
  0
LINE
  5
97
100
AcDbEntity
  8
taxiways
  6
ByLayer
 62
  256
370
   -1
100
AcDbLine
 10
286.3988740448562
 20
353.1167935666693
 11
326.5381101799308
 21
394.3408739216107
  0
ARC
  5
98
100
AcDbEntity
  8
taxiways
  6
ByLayer
 62
  256
370
   -1
100
AcDbCircle
 10
314.8886492840347
 20
410.2287959555915
 40
19.70116762333806
100
AcDbArc
 50
246.4304902505661
 51
306.2498932412536
  0
ARC
  5
99
100
AcDbEntity
  8
taxiways
  6
ByLayer
 62
  256
370
   -1
100
AcDbCircle
 10
287.9242011293084
 20
428.5800470925341
 40
21.06132973733509
100
AcDbArc
 50
140.1560394742232
 51
235.8226140585707
  0
ARC
  5
9A
100
AcDbEntity
  8
taxiways
  6
ByLayer
 62
  256
370
   -1
100
AcDbCircle
 10
239.5925626715997
 20
367.2244851389376
 40
32.57376253817996
100
AcDbArc
 50
64.03602875454435
 51
111.1920831846779
  0
ARC
  5
9B
100
AcDbEntity
  8
taxiways
  6
ByLayer
 62
  256
370
   -1
100
AcDbCircle
 10
269.090677627889
 20
367.8608127366783
 40
22.73674920682173
100
AcDbArc
 50
319.573921259901
 51
17.80621379205845
  0
LINE
  5
9C
100
AcDbEntity
  8
taxiways
  6
ByLayer
 62
  256
370
   -1
100
AcDbLine
 10
290.7382509243237
 20
374.8136779640068
 11
253.8535474488498
 21
396.5105623613445
  0
LINE
  5
9D
100
AcDbEntity
  8
taxiways
  6
ByLayer
 62
  256
370
   -1
100
AcDbLine
 10
276.0928539561208
 20
411.1559593295473
 11
307.0109142223269
 21
392.1711854818769
  0
LINE
  5
9E
100
AcDbEntity
  8
taxiways
  6
ByLayer
 62
  256
370
   -1
100
AcDbLine
 10
885.075552154607
 20
1067.857966135663
 11
923.2634148674946
 21
1013.168133513492
  0
LINE
  5
9F
100
AcDbEntity
  8
taxiways
  6
ByLayer
 62
  256
370
   -1
100
AcDbLine
 10
923.2634148674946
 20
1013.168133513492
 11
922.8697708551196
 21
1008.044839499625
  0
LINE
  5
A0
100
AcDbEntity
  8
taxiways
  6
ByLayer
 62
  256
370
   -1
100
AcDbLine
 10
922.8697708551196
 20
1008.044839499625
 11
892.2403126726127
 21
978.2545445549948
  0
LINE
  5
A1
100
AcDbEntity
  8
taxiways
  6
ByLayer
 62
  256
370
   -1
100
AcDbLine
 10
885.0755521546076
 20
1067.857966135662
 11
879.2332824855208
 21
1067.205847769946
  0
LINE
  5
A2
100
AcDbEntity
  8
taxiways
  6
ByLayer
 62
  256
370
   -1
100
AcDbLine
 10
879.2332824855208
 20
1067.205847769946
 11
851.5408956355832
 21
1034.478481492747
  0
ARC
  5
A3
100
AcDbEntity
  8
taxiways
  6
ByLayer
 62
  256
370
   -1
100
AcDbCircle
 10
864.1493232846835
 20
1010.331559322839
 40
27.24052675816298
100
AcDbArc
 50
49.74809471765128
 51
117.5715217905289
  0
ARC
  5
A4
100
AcDbEntity
  8
taxiways
  6
ByLayer
 62
  256
370
   -1
100
AcDbCircle
 10
844.4080081136283
 20
994.8280185030636
 40
50.62222237447465
100
AcDbArc
 50
340.8892476356709
 51
5.946863053973313
  0
LINE
  5
A5
100
AcDbEntity
  8
taxiways
  6
ByLayer
 62
  256
370
   -1
100
AcDbLine
 10
894.7578023862434
 20
1000.072788739794
 11
881.7507721991515
 21
1031.121828541239
  0
LINE
  5
A6
100
AcDbEntity
  8
taxiways
  6
ByLayer
 62
  256
370
   -1
100
AcDbLine
 10
346.2403063261022
 20
801.0036937394901
 11
556.3961141459254
 21
1019.772444502749
  0
LINE
  5
A7
100
AcDbEntity
  8
taxiways
  6
ByLayer
 62
  256
370
   -1
100
AcDbLine
 10
496.1055135418777
 20
1078.340456518109
 11
556.3961141459254
 21
1019.772444502749
  0
LINE
  5
A8
100
AcDbEntity
  8
taxiways
  6
ByLayer
 62
  256
370
   -1
100
AcDbLine
 10
346.2403063261022
 20
801.0036937394901
 11
285.9497057220545
 21
859.5717057548505
  0
LINE
  5
A9
100
AcDbEntity
  8
taxiways
  6
ByLayer
 62
  256
370
   -1
100
AcDbLine
 10
556.5115732706676
 20
998.6113832686407
 11
659.3625660384557
 21
906.1252192293892
  0
LINE
  5
AA
100
AcDbEntity
  8
taxiways
  6
ByLayer
 62
  256
370
   -1
100
AcDbLine
 10
533.3900322608547
 20
968.31419160061
 11
628.2680798528454
 21
878.219911114098
  0
ARC
  5
AB
100
AcDbEntity
  8
taxiways
  6
ByLayer
 62
  256
370
   -1
100
AcDbCircle
 10
675.9538001587645
 20
931.5403227191462
 40
30.35121966297153
100
AcDbArc
 50
236.8630952597673
 51
300.2727123719033
  0
ARC
  5
AC
100
AcDbEntity
  8
taxiways
  6
ByLayer
 62
  256
370
   -1
100
AcDbCircle
 10
601.1424788760689
 20
859.4102092048727
 40
33.00913683005374
100
AcDbArc
 50
330.4665296407084
 51
34.73859476429119
  0
ARC
  5
AD
100
AcDbEntity
  8
taxiways
  6
ByLayer
 62
  256
370
   -1
100
AcDbCircle
 10
572.7498334968764
 20
1009.280828174869
 40
19.42982629312748
100
AcDbArc
 50
147.3180774469002
 51
213.3071515844356
  0
ARC
  5
AE
100
AcDbEntity
  8
taxiways
  6
ByLayer
 62
  256
370
   -1
100
AcDbCircle
 10
519.8360254619989
 20
941.2061780028987
 40
30.30768056973566
100
AcDbArc
 50
63.43494882292182
 51
125.3624618870694
  0
LINE
  5
AF
100
AcDbEntity
  8
taxiways
  6
ByLayer
 62
  256
370
   -1
100
AcDbLine
 10
502.2955460752444
 20
965.9223080478707
 11
556.396114145923
 21
1019.772444502751
  0
LINE
  5
B0
100
AcDbEntity
  8
taxiways
  6
ByLayer
 62
  256
370
   -1
100
AcDbLine
 10
691.2543467416458
 20
905.3279247118095
 11
629.8626688880049
 21
843.1389523405888
  0
LINE
  5
B1
100
AcDbEntity
  8
taxiways
  6
ByLayer
 62
  256
370
   -1
100
AcDbLine
 10
394.08928661374
 20
827.0966433468085
 11
488.754862579674
 21
735.9371998240572
  0
LINE
  5
B2
100
AcDbEntity
  8
taxiways
  6
ByLayer
 62
  256
370
   -1
100
AcDbLine
 10
361.8328681364588
 20
799.0475838013465
 11
459.303350056939
 21
703.680781346776
  0
ARC
  5
B3
100
AcDbEntity
  8
taxiways
  6
ByLayer
 62
  256
370
   -1
100
AcDbCircle
 10
412.6571796774287
 20
839.4703690942076
 40
22.31312935687027
100
AcDbArc
 50
130.0601319383767
 51
213.6796633533116
  0
ARC
  5
B4
100
AcDbEntity
  8
taxiways
  6
ByLayer
 62
  256
370
   -1
100
AcDbCircle
 10
353.1348209994364
 20
792.8374713600192
 40
10.68744686685236
100
AcDbArc
 50
35.52555727740044
 51
130.1734731267515
  0
ARC
  5
B5
100
AcDbEntity
  8
taxiways
  6
ByLayer
 62
  256
370
   -1
100
AcDbCircle
 10
507.2707480121221
 20
759.8665537487796
 40
30.25643720933063
100
AcDbArc
 50
232.268267145628
 51
303.1505127690949
  0
ARC
  5
B6
100
AcDbEntity
  8
taxiways
  6
ByLayer
 62
  256
370
   -1
100
AcDbCircle
 10
442.4331453477642
 20
685.7342755155081
 40
24.63089276662943
100
AcDbArc
 50
332.154003875935
 51
46.77064054011614
  0
LINE
  5
B7
100
AcDbEntity
  8
taxiways
  6
ByLayer
 62
  256
370
   -1
100
AcDbLine
 10
346.2403063261022
 20
801.0036937394901
 11
398.2966455455593
 21
856.5481558695435
  0
LINE
  5
B8
100
AcDbEntity
  8
taxiways
  6
ByLayer
 62
  256
370
   -1
100
AcDbLine
 10
523.8161870115014
 20
734.5347468467841
 11
464.2119354773948
 21
674.229268824041
  0
LINE
  5
B9
100
AcDbEntity
  8
taxiways
  6
ByLayer
 62
  256
370
   -1
100
AcDbLine
 10
904.1694835110508
 20
1040.513049824578
 11
891.8717102203898
 21
1067.908437190876
  0
LINE
  5
BA
100
AcDbEntity
  8
taxiways
  6
ByLayer
 62
  256
370
   -1
100
AcDbLine
 10
891.8717102203898
 20
1067.908437190876
 11
896.165288926987
 21
1073.633208799672
  0
LINE
  5
BB
100
AcDbEntity
  8
taxiways
  6
ByLayer
 62
  256
370
   -1
100
AcDbLine
 10
896.165288926987
 20
1073.633208799672
 11
880.8992313035302
 21
1088.899266423129
  0
LINE
  5
BC
100
AcDbEntity
  8
taxiways
  6
ByLayer
 62
  256
370
   -1
100
AcDbLine
 10
880.8992313035302
 20
1088.899266423129
 11
877.082716897666
 21
1096.532295234857
  0
LINE
  5
BD
100
AcDbEntity
  8
taxiways
  6
ByLayer
 62
  256
370
   -1
100
AcDbLine
 10
877.082716897666
 20
1096.532295234857
 11
865.7608684541909
 21
1086.724417671468
  0
LINE
  5
BE
100
AcDbEntity
  8
taxiways
  6
ByLayer
 62
  256
370
   -1
100
AcDbLine
 10
865.7608684541909
 20
1086.724417671468
 11
885.0755521546056
 21
1067.857966135662
  0
LINE
  5
BF
100
AcDbEntity
  8
taxiways
  6
ByLayer
 62
  256
370
   -1
100
AcDbLine
 10
885.0755521546056
 20
1067.857966135662
 11
904.1694835110504
 21
1040.513049824578
  0
LINE
  5
C0
100
AcDbEntity
  8
taxiways
  6
ByLayer
 62
  256
370
   -1
100
AcDbLine
 10
877.082716897666
 20
1096.532295234857
 11
814.8114024873479
 21
1242.537420800412
  0
LINE
  5
C1
100
AcDbEntity
  8
taxiways
  6
ByLayer
 62
  256
370
   -1
100
AcDbLine
 10
865.760868454191
 20
1086.724417671468
 11
802.8190842168882
 21
1235.875021761268
  0
ARC
  5
C2
100
AcDbEntity
  8
taxiways
  6
ByLayer
 62
  256
370
   -1
100
AcDbCircle
 10
947.6210215585214
 20
1290.818728357382
 40
141.3134090496758
100
AcDbArc
 50
136.1062687273485
 51
199.978115122349
  0
ARC
  5
C3
100
AcDbEntity
  8
taxiways
  6
ByLayer
 62
  256
370
   -1
100
AcDbCircle
 10
949.9364275147437
 20
1291.434039894381
 40
157.2587587224785
100
AcDbArc
 50
136.048491734671
 51
200.6890959841479
  0
LINE
  5
C4
100
AcDbEntity
  8
taxiways
  6
ByLayer
 62
  256
370
   -1
100
AcDbLine
 10
845.7867674334865
 20
1388.794563459916
 11
852.1324344989039
 21
1384.261944127475
  0
LINE
  5
C5
100
AcDbEntity
  8
taxiways
  6
ByLayer
 62
  256
370
   -1
100
AcDbLine
 10
852.1324344989039
 20
1384.261944127475
 11
924.6543438179607
 21
1459.050163112753
  0
LINE
  5
C6
100
AcDbEntity
  8
taxiways
  6
ByLayer
 62
  256
370
   -1
100
AcDbLine
 10
818.3898031404817
 20
1419.298185043379
 11
836.7215287686046
 21
1400.579373724262
  0
LINE
  5
C7
100
AcDbEntity
  8
buildings
  6
ByLayer
 62
  256
370
   -1
100
AcDbLine
 10
136.3373625061412
 20
529.4035596729694
 11
146.7021912346783
 21
552.5251006827829
  0
LINE
  5
C8
100
AcDbEntity
  8
buildings
  6
ByLayer
 62
  256
370
   -1
100
AcDbLine
 10
146.7021912346783
 20
552.5251006827829
 11
127.5671228127637
 21
561.2953403761603
  0
LINE
  5
C9
100
AcDbEntity
  8
buildings
  6
ByLayer
 62
  256
370
   -1
100
AcDbLine
 10
127.5671228127637
 20
561.2953403761603
 11
117.2022940842267
 21
538.9710938839266
  0
LINE
  5
CA
100
AcDbEntity
  8
buildings
  6
ByLayer
 62
  256
370
   -1
100
AcDbLine
 10
117.2022940842267
 20
538.9710938839266
 11
136.3373625061412
 21
529.4035596729694
  0
LWPOLYLINE
  5
CB
100
AcDbEntity
  8
buildings
  6
ByLayer
 62
  256
370
   -1
100
AcDbPolyline
 90
    4
 70
    1
 43
0
 10
75.74297917007846
 20
547.7413335773042
 10
54.75454895210358
 20
548.438324958312
 10
55.61749066192276
 20
574.4240004662809
 10
76.60592087989764
 20
573.7270090852732
  0
LWPOLYLINE
  5
CC
100
AcDbEntity
  8
buildings
  6
ByLayer
 62
  256
370
   -1
100
AcDbPolyline
 90
    4
 70
    1
 43
0
 10
-15.63340526900057
 20
523.1100182438098
 10
-34.28366425593025
 20
513.4576693213739
 10
-46.23419149323179
 20
536.5484661623345
 10
-27.58393250630212
 20
546.2008150847704
  0
LWPOLYLINE
  5
CD
100
AcDbEntity
  8
buildings
  6
ByLayer
 62
  256
370
   -1
100
AcDbPolyline
 90
    4
 70
    1
 43
0
 10
-38.50791909894836
 20
509.063621788256
 10
-54.84469392253627
 20
495.8685549690472
 10
-71.1814433177471
 20
516.0950380839656
 10
-54.84466849415919
 20
529.2901049031743
  0
LWPOLYLINE
  5
CE
100
AcDbEntity
  8
buildings
  6
ByLayer
 62
  256
370
   -1
100
AcDbPolyline
 90
    4
 70
    1
 43
0
 10
118.4888653562183
 20
416.5004084526288
 10
103.7969827128993
 20
431.5053604483847
 10
122.3745423266924
 20
449.6953103877321
 10
137.0664249700114
 20
434.6903583919761
  0
LWPOLYLINE
  5
CF
100
AcDbEntity
  8
buildings
  6
ByLayer
 62
  256
370
   -1
100
AcDbPolyline
 90
    4
 70
    1
 43
0
 10
-134.3264436606491
 20
417.6703822326457
 10
-143.6840328383802
 20
398.8705012548095
 10
-166.9600759537965
 20
410.45608785581
 10
-157.6024867760653
 20
429.2559688336462
  0
LWPOLYLINE
  5
D0
100
AcDbEntity
  8
buildings
  6
ByLayer
 62
  256
370
   -1
100
AcDbPolyline
 90
    4
 70
    1
 43
0
 10
3.172833532709102
 20
416.5477166513842
 10
-9.505523081167217
 20
399.8067706335698
 10
-30.23240862703274
 20
415.5037835840834
 10
-17.55405201315631
 20
432.2447296018978
  0
LWPOLYLINE
  5
D1
100
AcDbEntity
  8
buildings
  6
ByLayer
 62
  256
370
   -1
100
AcDbPolyline
 90
    4
 70
    1
 43
0
 10
-8.611976731639064
 20
567.0306784884457
 10
7.696523112364475
 20
567.5704390690075
 10
6.916868940441833
 20
591.1271610659015
 10
-9.391630903561706
 20
590.5874004853397
  0
LWPOLYLINE
  5
D2
100
AcDbEntity
  8
buildings
  6
ByLayer
 62
  256
370
   -1
100
AcDbPolyline
 90
    4
 70
    1
 43
0
 10
195.7358040658605
 20
507.8766076983834
 10
205.515048238835
 20
518.3802372082497
 10
195.0114187289687
 20
528.1594813812242
 10
185.2321745559942
 20
517.6558518713579
  0
LWPOLYLINE
  5
D3
100
AcDbEntity
  8
taxiways
  6
ByLayer
 62
  256
370
   -1
100
AcDbPolyline
 90
    2
 70
    0
 43
0
 10
285.9497057220545
 20
859.5717057548505
 10
496.1055135418777
 20
1078.340456518109
  0
LWPOLYLINE
  5
D4
100
AcDbEntity
  8
taxiways
  6
ByLayer
 62
  256
370
   -1
100
AcDbPolyline
 90
    4
 70
    1
 43
0
 10
334.5848593977079
 20
905.8987611713771
 10
413.3260488765075
 20
986.9470497372919
 10
377.4639742898195
 20
1021.788284019947
 10
298.7227848110199
 20
940.7399954540318
  0
LWPOLYLINE
  5
D5
100
AcDbEntity
  8
buildings
  6
ByLayer
 62
  256
370
   -1
100
AcDbPolyline
 90
    4
 70
    1
 43
0
 10
796.078884305329
 20
1373.071607543373
 10
785.7730349322784
 20
1354.774354506373
 10
763.1192930769455
 20
1367.533977539674
 10
773.4251424499962
 20
1385.831230576674
  0
LWPOLYLINE
  5
D6
100
AcDbEntity
  8
buildings
  6
ByLayer
 62
  256
370
   -1
100
AcDbPolyline
 90
    4
 70
    1
 43
0
 10
916.105121542737
 20
1485.263921464992
 10
966.4331004467974
 20
1533.916717267828
 10
902.4894259630702
 20
1600.062060970307
 10
852.1614470590098
 20
1551.409265167471
  0
LINE
  5
D7
100
AcDbEntity
  8
taxiways
  6
ByLayer
 62
  256
370
   -1
100
AcDbLine
 10
924.6543438179607
 20
1459.050163112753
 11
889.0843790464543
 21
1492.647056704389
  0
LINE
  5
D8
100
AcDbEntity
  8
taxiways
  6
ByLayer
 62
  256
370
   -1
100
AcDbLine
 10
818.3898031404818
 20
1419.298185043379
 11
889.0843790464543
 21
1492.647056704389
  0
LWPOLYLINE
  5
D9
100
AcDbEntity
  8
buildings
  6
ByLayer
 62
  256
370
   -1
100
AcDbPolyline
 90
    4
 70
    1
 43
0
 10
202.1538349445572
 20
528.1268937926558
 10
219.6305597724478
 20
547.0714131542468
 10
209.9725695096759
 20
555.9811160076812
 10
192.4958446817853
 20
537.0365966460902
  0
ARC
  5
DA
100
AcDbEntity
  8
annotations
  6
ByLayer
 62
  256
370
   -1
100
AcDbCircle
 10
58.93641945026922
 20
51.39314394491955
 40
7.519652094973606
100
AcDbArc
 50
344.9999999999999
 51
105.0000000000001
  0
ARC
  5
DB
100
AcDbEntity
  8
annotations
  6
ByLayer
 62
  256
370
   -1
100
AcDbCircle
 10
64.25361643878868
 20
56.71034093343901
 40
7.519652094973613
100
AcDbArc
 50
165
 51
285
  0
ARC
  5
DC
100
AcDbEntity
  8
annotations
  6
ByLayer
 62
  256
370
   -1
100
AcDbCircle
 10
17.42912749488445
 20
91.73736323635268
 40
7.519652094973606
100
AcDbArc
 50
346.6281842418549
 51
106.628184241855
  0
ARC
  5
DD
100
AcDbEntity
  8
annotations
  6
ByLayer
 62
  256
370
   -1
100
AcDbCircle
 10
22.5930983279304
 20
97.20349284192292
 40
7.519652094973613
100
AcDbArc
 50
166.6281842418549
 51
286.6281842418549
  0
LWPOLYLINE
  5
DE
100
AcDbEntity
  8
buildings
  6
ByLayer
 62
  256
370
   -1
100
AcDbPolyline
 90
    4
 70
    1
 43
0
 10
305.2324475348203
 20
951.2424837864415
 10
371.7306784753101
 20
1019.087787837535
 10
339.5934291879503
 20
1050.586949861977
 10
273.0951982474604
 20
982.7416458108839
  0
ENDSEC
  0
SECTION
  2
OBJECTS
  0
DICTIONARY
  5
C
330
0
100
AcDbDictionary
281
    1
  3
ACAD_GROUP
350
D
  3
ACAD_IMAGE_DICT
350
DF
  0
DICTIONARY
  5
D
330
C
100
AcDbDictionary
281
    1
  0
IMAGEDEF_REACTOR
  5
71
330
72
100
AcDbRasterImageDefReactor
 90
    2
330
72
  0
IMAGEDEF_REACTOR
  5
74
330
75
100
AcDbRasterImageDefReactor
 90
    2
330
75
  0
DICTIONARY
  5
DF
330
C
100
AcDbDictionary
281
    1
  3
altis_satellite
350
70
  3
altis_satellite
350
73
  0
IMAGEDEF
  5
70
102
{ACAD_REACTORS
330
71
102
}
100
AcDbRasterImageDef
 90
    0
  1
C:/Users/idahl/Documents/projects/arma_airdrome_charts/altis/reference/altis_satellite.jpg
 10
900
 20
1037
 11
1
 21
1
280
    1
281
    0
  0
IMAGEDEF
  5
73
102
{ACAD_REACTORS
330
74
102
}
100
AcDbRasterImageDef
 90
    0
  1
C:/Users/idahl/Documents/projects/arma_editing/arma_airdrome_charts/altis/reference/altis_satellite.jpg
 10
900
 20
1037
 11
1
 21
1
280
    1
281
    0
  0
ENDSEC
  0
EOF
